<svg height="512pt" viewBox="0 0 512 512" width="512pt" xmlns="http://www.w3.org/2000/svg" xmlns:xlink="http://www.w3.org/1999/xlink"><linearGradient id="a" gradientUnits="userSpaceOnUse" x1="0" x2="512" y1="256" y2="256"><stop offset="0" stop-color="#00f1ff"/><stop offset=".231" stop-color="#00d8ff"/><stop offset=".5138" stop-color="#00c0ff"/><stop offset=".7773" stop-color="#00b2ff"/><stop offset="1" stop-color="#00adff"/></linearGradient><path d="m512 256c0 141.386719-114.613281 256-256 256s-256-114.613281-256-256 114.613281-256 256-256 256 114.613281 256 256zm0 0" fill="url(#a)"/><path d="m401.777344 105.371094c.007812-.128906.011718-.253906.019531-.378906.011719-.21875.023437-.433594.023437-.652344.003907-.109375 0-.214844 0-.324219v-.003906c-.003906-.113281 0-.222657-.003906-.332031-.007812-.21875-.023437-.4375-.039062-.652344-.011719-.125-.019532-.25-.03125-.375-.007813-.082032-.015625-.167969-.023438-.25-.007812-.0625-.019531-.121094-.027344-.183594-.035156-.257812-.070312-.519531-.117187-.773438-.023437-.113281-.050781-.222656-.074219-.335937-.023437-.109375-.046875-.21875-.070312-.328125-.042969-.191406-.09375-.382812-.144532-.570312-.046874-.160157-.089843-.320313-.136718-.476563-.011719-.035156-.019532-.070313-.03125-.101563-.019532-.058593-.039063-.121093-.058594-.179687-.082031-.246094-.167969-.488281-.261719-.730469-.046875-.121094-.097656-.238281-.148437-.359375-.054688-.132812-.113282-.261719-.171875-.390625-.082031-.183594-.167969-.363281-.257813-.539062-.0625-.125-.125-.246094-.191406-.367188-.042969-.082031-.085938-.167968-.128906-.25-.167969-.296875-.347656-.589844-.535156-.875-.027344-.042968-.058594-.082031-.082032-.121094-.003906-.003906-.007812-.007812-.007812-.007812-.089844-.132812-.179688-.257812-.273438-.386719-.144531-.207031-.300781-.40625-.457031-.605469-.039063-.046874-.070313-.097656-.105469-.144531-.019531-.023437-.046875-.046875-.066406-.070312-.058594-.070313-.113281-.140625-.171875-.207031-.242187-.285157-.492187-.558594-.757813-.824219-.042968-.039063-.085937-.078125-.125-.121094-.082031-.074219-.167968-.152344-.25-.226563-.191406-.179687-.386718-.355468-.589843-.527343-.109375-.09375-.21875-.1875-.332031-.277344-.027344-.019531-.046876-.042969-.074219-.0625-.019531-.011719-.039063-.023437-.058594-.039063-.027344-.023437-.050781-.046874-.082031-.066406-.199219-.15625-.410156-.300781-.617188-.441406-.132812-.089844-.265625-.183594-.402344-.269531-.097656-.0625-.195312-.117188-.292968-.179688-.195313-.117187-.390625-.230469-.585938-.339843-.128906-.074219-.257812-.140626-.390625-.207032-.078125-.042968-.15625-.082031-.238281-.121094-.210938-.105468-.429688-.199218-.644531-.292968-.109375-.046875-.214844-.097656-.324219-.140625-.050781-.023438-.101562-.039063-.15625-.0625-.128906-.050781-.261719-.09375-.394531-.140625-.203125-.074219-.402344-.144532-.605469-.207032-.101562-.03125-.207031-.0625-.3125-.089843-.117188-.035157-.230469-.070313-.347656-.101563-.226563-.058594-.453125-.105468-.679688-.15625-.09375-.019531-.1875-.042968-.277344-.058594-.082031-.015624-.160156-.03125-.242187-.046874-.101563-.015626-.207031-.027344-.308594-.042969-.238281-.039063-.476562-.074219-.714843-.097657-.082032-.007812-.160157-.011718-.242188-.019531-.023438-.003906-.046875-.003906-.070312-.007812-.105469-.007813-.207032-.019531-.3125-.023438-.234376-.015625-.464844-.023437-.699219-.027343-.101563 0-.207031-.003907-.308594-.003907s-.199219 0-.300781 0c-.019532 0-.035156.003907-.054688.003907-.304687.007812-.613281.023437-.917968.050781-.070313.007812-.136719.019531-.207032.027343-.046875.003907-.089844.011719-.136718.015626-.082032.007812-.167969.019531-.253907.03125-.21875.027343-.441406.0625-.664062.101562-.136719.023438-.277344.050781-.417969.078125-.324219.066406-.652344.144531-.972656.234375-.140625.039062-.277344.078125-.414063.117188-.027343.011718-.054687.019531-.082031.027343-.113281.035157-.226562.078125-.339844.113281-.191406.066407-.386718.132813-.574218.207032-.140626.054687-.28125.109375-.417969.167968-.089844.039063-.179688.074219-.269531.117188-.03125.011719-.0625.023438-.09375.035156l-291.601563 131.867188c-.214844.097656-.429687.199218-.644531.308594-9.988282 5.105468-16.207032 15.246093-16.226563 26.46875-.015625 10.933593 5.855469 20.859374 15.382813 26.113281l50.285156 32.523437 36.320312 92.023438c1.972657 4.992187 6.460938 8.550781 11.773438 9.332031.726562.105469 1.457031.160156 2.183594.160156 4.550781 0 8.90625-2.074219 11.773437-5.710937l27.71875-35.148438 63.835938 43.261719c.078125.054687.15625.109375.238281.160156 6.75 4.386719 14.519531 6.789063 22.46875 6.949219.277344.003906.558594.007812.835938.007812 20.695312 0 38.824218-15.320312 42.363281-35.953124 1.402343-8.167969-4.082031-15.921876-12.246094-17.320313-8.164063-1.40625-15.921875 4.082031-17.320313 12.25-1.253906 7.300781-7.628906 11.152344-13.035156 11.019531-2.339844-.046875-4.5625-.730468-6.613281-2.042968l-80.703125-54.691407 135.398438-172.9375-25.679688 160.410157c-1.3125 8.179687 4.257812 15.871093 12.4375 17.179687 8.183594 1.320313 15.875-4.257813 17.183594-12.4375l34.835937-217.585937c.003907-.03125.007813-.0625.015625-.09375l.011719-.074219c.035156-.230469.058594-.460938.085937-.691407.007813-.082031.019532-.164062.03125-.242187.007813-.078125.011719-.160156.019532-.238281zm-205.789063 218.21875c-1.085937 1.386718-1.917969 2.953125-2.460937 4.628906l-6.921875 21.394531-18.601563-47.132812 123.710938-101.160157zm-93.511719-74.367188 186.292969-84.242187-139.773437 114.289062-45.664063-29.53125c-.265625-.175781-.558593-.351562-.855469-.515625zm0 0" fill="#fff"/></svg>